<svg xmlns="http://www.w3.org/2000/svg" width="820" height="295" viewBox="0 0 820 295" font-family="Helvetica,Arial,sans-serif" xmlns:c2pa="http://c2pa.org/manifest"><metadata><c2pa:manifest>AAAWgmp1bWIAAAAeanVtZGMycGEAEQAQgAAAqgA4m3EDYzJwYQAAABZcanVtYgAAAEdqdW1kYzJtYQARABCAAACqADibcQN1cm46YzJwYTo4OWRmNmZmMi05MjA2LTQ4NGYtYmE3Mi1hOTQzYjA0MDExZDkAAAADl2p1bWIAAAApanVtZGMyYXMAEQAQgAAAqgA4m3EDYzJwYS5hc3NlcnRpb25zAAAAALxqdW1iAAAARGp1bWRjYm9yABEAEIAAAKoAOJtxE2MycGEuaW5ncmVkaWVudC52MwAAAAAYYzJzaFGQpHCy6K7p68OJNlCBW90AAABwY2JvcqNpZGM6Zm9ybWF0bWltYWdlL3N2Zyt4bWxqaW5zdGFuY2VJRHgseG1wOmlpZDpmM2FjNmM5Ni0zYWMwLTQzNTItOWJjYS1lNWI3N2Q0ZjdkZDlscmVsYXRpb25zaGlwaHBhcmVudE9mAAAB4mp1bWIAAABBanVtZGNib3IAEQAQgAAAqgA4m3ETYzJwYS5hY3Rpb25zLnYyAAAAABhjMnNotlE7SlYat/lBD836eVoRowAAAZljYm9yomdhY3Rpb25zgqJmYWN0aW9ua2MycGEub3BlbmVkanBhcmFtZXRlcnOha2luZ3JlZGllbnRzgaJjdXJseC1zZWxmI2p1bWJmPWMycGEuYXNzZXJ0aW9ucy9jMnBhLmluZ3JlZGllbnQudjNkaGFzaFggb3kD4h2PUI0GzHBKMOSCd/YTGUaNdyfc3kUtb/RSGiekZmFjdGlvbngdY29tLmFudGhyb3BpYy5jbGF1ZGUucHJvdmlkZWRqcGFyYW1ldGVyc6F4H2NvbS5hbnRocm9waWMub3JpZ2luLWNvbmZpZGVuY2VndW5rbm93bmtkZXNjcmlwdGlvbnhmQ2xhdWRlIHByb3ZpZGVkIHRoaXMgZmlsZSBhdCB0aGUgcmVxdWVzdCBvZiBhIHVzZXIgYW5kIG1heSBoYXZlIGNyZWF0ZWQgb3IgbW9kaWZpZWQgdGhlIGZpbGUgY29udGVudHMubXNvZnR3YXJlQWdlbnShZG5hbWVmQ2xhdWRlcmFsbEFjdGlvbnNJbmNsdWRlZPUAAADIanVtYgAAAEBqdW1kY2JvcgARABCAAACqADibcRNjMnBhLmhhc2guZGF0YQAAAAAYYzJzaGqRVOkW71pa8W1sz+BjQ7IAAACAY2JvcqVjYWxnZnNoYTI1NmNwYWRNAAAAAAAAAAAAAAAAAGRoYXNoWCAHEDoUmwHMC0XvEomMJ/+ZELL6PPNVnelRQGOvY/hH7WRuYW1lbmp1bWJmIG1hbmlmZXN0amV4Y2x1c2lvbnOBomVzdGFydBi/Zmxlbmd0aBkeBAAAAj5qdW1iAAAAJ2p1bWRjMmNsABEAEIAAAKoAOJtxA2MycGEuY2xhaW0udjIAAAACD2Nib3KlY2FsZ2ZzaGEyNTZpc2lnbmF0dXJleE1zZWxmI2p1bWJmPS9jMnBhL3VybjpjMnBhOjg5ZGY2ZmYyLTkyMDYtNDg0Zi1iYTcyLWE5NDNiMDQwMTFkOS9jMnBhLnNpZ25hdHVyZWppbnN0YW5jZUlEeCx4bXA6aWlkOjYwMjE0OGFhLTMyZGUtNGYxYi04NTgzLTg3MzY4MDgyMWNhZnJjcmVhdGVkX2Fzc2VydGlvbnODomN1cmx4LXNlbGYjanVtYmY9YzJwYS5hc3NlcnRpb25zL2MycGEuaW5ncmVkaWVudC52M2RoYXNoWCBveQPiHY9QjQbMcEow5IJ39hMZRo13J9zeRS1v9FIaJ6JjdXJseCpzZWxmI2p1bWJmPWMycGEuYXNzZXJ0aW9ucy9jMnBhLmFjdGlvbnMudjJkaGFzaFggGa15ZiZQJ1YzRW0XBOfvzIpjmVMDePfyzrVFPQwjq2+iY3VybHgpc2VsZiNqdW1iZj1jMnBhLmFzc2VydGlvbnMvYzJwYS5oYXNoLmRhdGFkaGFzaFggoCRgijGOfW963lDZ6YzYdTuJE0a5qx2sexSdJ3ITO+x0Y2xhaW1fZ2VuZXJhdG9yX2luZm+jZG5hbWVvQW50aHJvcGljIEZpbGVzZ3ZlcnNpb25lMS4wLjBrc3BlY1ZlcnNpb25lMi40LjAAABA4anVtYgAAAChqdW1kYzJjcwARABCAAACqADibcQNjMnBhLnNpZ25hdHVyZQAAABAIY2JvctKEWQISogEmGCFZAgowggIGMIIBjaADAgECAhRA5aAK7sI50L64g/oGQgU9Z1UTADAKBggqhkjOPQQDAzBJMRcwFQYDVQQKEw5BbnRocm9waWMsIFBCQzEuMCwGA1UEAxMlQW50aHJvcGljIENvbnRlbnQgQ3JlZGVudGlhbHMgUm9vdCBDQTAeFw0yNjA4MDcxODQzNTZaFw0yODA4MDYxOTQzNTZaMEQxFzAVBgNVBAoTDkFudGhyb3BpYywgUEJDMSkwJwYDVQQDEyBBbnRocm9waWMgQ2xhdWRlIENvbnRlbnQgU2lnbmluZzBZMBMGByqGSM49AgEGCCqGSM49AwEHA0IABJh6CmvLUBgFFNU0vUKlOVtE6djd17L5SuwX0LemFisBM3dkd/3cyjxFA3Qo5S46fX0/ihY0VZ7mfb9KF703t5OjWDBWMA4GA1UdDwEB/wQEAwIHgDAVBgNVHSUEDjAMBgorBgEEAYPoXgIBMAwGA1UdEwEB/wQCMAAwHwYDVR0jBBgwFoAUzlHiBIFOZFsj+OPEz5o+nMHXXMIwCgYIKoZIzj0EAwMDZwAwZAIwMXMdFJ4BetLLVY7ORuE9noqbbAZOZn/aArXyTwFAZfKrPzxF2vPoJNf1+UCdg1XGAjBwX1zd9WGqYkqmL5SFqw1QySjr1zJfpJM9+1rdDwSPLMOPOjKuiXjoU/pUUeG9RwmhY3BhZFkNngAAAAAAAAAAAAAAAAAAAAAAAAAAAAAAAAAAAAAAAAAAAAAAAAAAAAAAAAAAAAAAAAAAAAAAAAAAAAAAAAAAAAAAAAAAAAAAAAAAAAAAAAAAAAAAAAAAAAAAAAAAAAAAAAAAAAAAAAAAAAAAAAAAAAAAAAAAAAAAAAAAAAAAAAAAAAAAAAAAAAAAAAAAAAAAAAAAAAAAAAAAAAAAAAAAAAAAAAAAAAAAAAAAAAAAAAAAAAAAAAAAAAAAAAAAAAAAAAAAAAAAAAAAAAAAAAAAAAAAAAAAAAAAAAAAAAAAAAAAAAAAAAAAAAAAAAAAAAAAAAAAAAAAAAAAAAAAAAAAAAAAAAAAAAAAAAAAAAAAAAAAAAAAAAAAAAAAAAAAAAAAAAAAAAAAAAAAAAAAAAAAAAAAAAAAAAAAAAAAAAAAAAAAAAAAAAAAAAAAAAAAAAAAAAAAAAAAAAAAAAAAAAAAAAAAAAAAAAAAAAAAAAAAAAAAAAAAAAAAAAAAAAAAAAAAAAAAAAAAAAAAAAAAAAAAAAAAAAAAAAAAAAAAAAAAAAAAAAAAAAAAAAAAAAAAAAAAAAAAAAAAAAAAAAAAAAAAAAAAAAAAAAAAAAAAAAAAAAAAAAAAAAAAAAAAAAAAAAAAAAAAAAAAAAAAAAAAAAAAAAAAAAAAAAAAAAAAAAAAAAAAAAAAAAAAAAAAAAAAAAAAAAAAAAAAAAAAAAAAAAAAAAAAAAAAAAAAAAAAAAAAAAAAAAAAAAAAAAAAAAAAAAAAAAAAAAAAAAAAAAAAAAAAAAAAAAAAAAAAAAAAAAAAAAAAAAAAAAAAAAAAAAAAAAAAAAAAAAAAAAAAAAAAAAAAAAAAAAAAAAAAAAAAAAAAAAAAAAAAAAAAAAAAAAAAAAAAAAAAAAAAAAAAAAAAAAAAAAAAAAAAAAAAAAAAAAAAAAAAAAAAAAAAAAAAAAAAAAAAAAAAAAAAAAAAAAAAAAAAAAAAAAAAAAAAAAAAAAAAAAAAAAAAAAAAAAAAAAAAAAAAAAAAAAAAAAAAAAAAAAAAAAAAAAAAAAAAAAAAAAAAAAAAAAAAAAAAAAAAAAAAAAAAAAAAAAAAAAAAAAAAAAAAAAAAAAAAAAAAAAAAAAAAAAAAAAAAAAAAAAAAAAAAAAAAAAAAAAAAAAAAAAAAAAAAAAAAAAAAAAAAAAAAAAAAAAAAAAAAAAAAAAAAAAAAAAAAAAAAAAAAAAAAAAAAAAAAAAAAAAAAAAAAAAAAAAAAAAAAAAAAAAAAAAAAAAAAAAAAAAAAAAAAAAAAAAAAAAAAAAAAAAAAAAAAAAAAAAAAAAAAAAAAAAAAAAAAAAAAAAAAAAAAAAAAAAAAAAAAAAAAAAAAAAAAAAAAAAAAAAAAAAAAAAAAAAAAAAAAAAAAAAAAAAAAAAAAAAAAAAAAAAAAAAAAAAAAAAAAAAAAAAAAAAAAAAAAAAAAAAAAAAAAAAAAAAAAAAAAAAAAAAAAAAAAAAAAAAAAAAAAAAAAAAAAAAAAAAAAAAAAAAAAAAAAAAAAAAAAAAAAAAAAAAAAAAAAAAAAAAAAAAAAAAAAAAAAAAAAAAAAAAAAAAAAAAAAAAAAAAAAAAAAAAAAAAAAAAAAAAAAAAAAAAAAAAAAAAAAAAAAAAAAAAAAAAAAAAAAAAAAAAAAAAAAAAAAAAAAAAAAAAAAAAAAAAAAAAAAAAAAAAAAAAAAAAAAAAAAAAAAAAAAAAAAAAAAAAAAAAAAAAAAAAAAAAAAAAAAAAAAAAAAAAAAAAAAAAAAAAAAAAAAAAAAAAAAAAAAAAAAAAAAAAAAAAAAAAAAAAAAAAAAAAAAAAAAAAAAAAAAAAAAAAAAAAAAAAAAAAAAAAAAAAAAAAAAAAAAAAAAAAAAAAAAAAAAAAAAAAAAAAAAAAAAAAAAAAAAAAAAAAAAAAAAAAAAAAAAAAAAAAAAAAAAAAAAAAAAAAAAAAAAAAAAAAAAAAAAAAAAAAAAAAAAAAAAAAAAAAAAAAAAAAAAAAAAAAAAAAAAAAAAAAAAAAAAAAAAAAAAAAAAAAAAAAAAAAAAAAAAAAAAAAAAAAAAAAAAAAAAAAAAAAAAAAAAAAAAAAAAAAAAAAAAAAAAAAAAAAAAAAAAAAAAAAAAAAAAAAAAAAAAAAAAAAAAAAAAAAAAAAAAAAAAAAAAAAAAAAAAAAAAAAAAAAAAAAAAAAAAAAAAAAAAAAAAAAAAAAAAAAAAAAAAAAAAAAAAAAAAAAAAAAAAAAAAAAAAAAAAAAAAAAAAAAAAAAAAAAAAAAAAAAAAAAAAAAAAAAAAAAAAAAAAAAAAAAAAAAAAAAAAAAAAAAAAAAAAAAAAAAAAAAAAAAAAAAAAAAAAAAAAAAAAAAAAAAAAAAAAAAAAAAAAAAAAAAAAAAAAAAAAAAAAAAAAAAAAAAAAAAAAAAAAAAAAAAAAAAAAAAAAAAAAAAAAAAAAAAAAAAAAAAAAAAAAAAAAAAAAAAAAAAAAAAAAAAAAAAAAAAAAAAAAAAAAAAAAAAAAAAAAAAAAAAAAAAAAAAAAAAAAAAAAAAAAAAAAAAAAAAAAAAAAAAAAAAAAAAAAAAAAAAAAAAAAAAAAAAAAAAAAAAAAAAAAAAAAAAAAAAAAAAAAAAAAAAAAAAAAAAAAAAAAAAAAAAAAAAAAAAAAAAAAAAAAAAAAAAAAAAAAAAAAAAAAAAAAAAAAAAAAAAAAAAAAAAAAAAAAAAAAAAAAAAAAAAAAAAAAAAAAAAAAAAAAAAAAAAAAAAAAAAAAAAAAAAAAAAAAAAAAAAAAAAAAAAAAAAAAAAAAAAAAAAAAAAAAAAAAAAAAAAAAAAAAAAAAAAAAAAAAAAAAAAAAAAAAAAAAAAAAAAAAAAAAAAAAAAAAAAAAAAAAAAAAAAAAAAAAAAAAAAAAAAAAAAAAAAAAAAAAAAAAAAAAAAAAAAAAAAAAAAAAAAAAAAAAAAAAAAAAAAAAAAAAAAAAAAAAAAAAAAAAAAAAAAAAAAAAAAAAAAAAAAAAAAAAAAAAAAAAAAAAAAAAAAAAAAAAAAAAAAAAAAAAAAAAAAAAAAAAAAAAAAAAAAAAAAAAAAAAAAAAAAAAAAAAAAAAAAAAAAAAAAAAAAAAAAAAAAAAAAAAAAAAAAAAAAAAAAAAAAAAAAAAAAAAAAAAAAAAAAAAAAAAAAAAAAAAAAAAAAAAAAAAAAAAAAAAAAAAAAAAAAAAAAAAAAAAAAAAAAAAAAAAAAAAAAAAAAAAAAAAAAAAAAAAAAAAAAAAAAAAAAAAAAAAAAAAAAAAAAAAAAAAAAAAAAAAAAAAAAAAAAAAAAAAAAAAAAAAAAAAAAAAAAAAAAAAAAAAAAAAAAAAAAAAAAAAAAAAAAAAAAAAAAAAAAAAAAAAAAAAAAAAAAAAAAAAAAAAAAAAAAAAAAAAAAAAAAAAAAAAAAAAAAAAAAAAAAAAAAAAAAAAAAAAAAAAAAAAAAAAAAAAAAAAAAAAAAAAAAAAAAAAAAAAAAAAAAAAAAAAAAAAAAAAAAAAAAAAAAAAAAAAAAAAAAAAAAAAAAAAAAAAAAAAAAAAAAAAAAAAAAAAAAAAAAAAAAAAAAAAAAAAAAAAAAAAAAAAAAAAAAAAAAAAAAAAAAAAAAAAAAAAAAAAAAAAAAAAAAAAAAAAAAAAAAAAAAAAAAAAAAAAAAAAAAAAAAAAAAAAAAAAAAAAAAAAAAAAAAAAAAAAAAAAAAAAAAAAAAAAAAAAAAAAAAAAAAAAAAAAAAAAAAAAAAAAAAAAAAAAAAAAAAAAAAAAAAAAAAAAAAAAAAAAAAAAAAAAAAAAAAAAAAAAAAAAAAAAAAAAAAAAAAAAAAAAAAAAAAAAAAAAAAAAAAAAAAAAAAAAAAAAAAAAAAAAAAAAAAAAAAAAAAAAAAAAAAAAAAAAAAAAAAAAAAAAAAAAAAAAAAAAAAAAAAAAAAAAAAAAAAAAAAAAAAAAAAAAAAAAAAAAAAAAAAAAAAAAAAAAAAAAAAAAAAAAAAAAAAAAAAAAAAAAAAAAAAAAAAAAAAAAAAAAAAAAAAAAAAAAAAAAAAAAAAAAAAAAAAAAAAAAAAAAAAAAAAAAAAAAAAAAAAAAAAAAAAAAAAAAAAAAAAAAAAAAAAAAAAAAAAAAAAAAAAAAAAAAAAAAAAAAAAAAAAAAAAAAAAAAAAAAAAAAAAAAAAAAAAAAAAAAAAAAAAAAAAAAAAAAAAAAAAAAAAAAAAAAAAAAAAAAAAAAAAAAAAAAAAAAAAAAAAAAAAAAAAAAAAAAAAAAAAAAAAAAAAAAAAAAAAAAAAAAAAAAAAAAAAAAAAAAAAAAAAAAAAAAAAAAAAAAAAAAAAAAAAAAAAAAAAAAAAAAAAAAAAAAAAAAAAAAAAAAAAAAAAAAAAAAAAAAAAAAAAAAAAAAAAAAAAAAAAAAAAAAAAAAAAAAAAAAAAAAAAAAAAAAAAAAAAAAAAAAAAAAAAAAAAAAAAAAAAAAAAAAAAAAAAAAAAAAAAAAAAAAAAAAAAAAAAAAAAAAAAAAAAAAAAAAAAAAAAAAAAAAAAAAAAAAAAAAAAAAAAAAAAAAAAAAAAAAAAAAAAAAAAAAAAAAAAAAAAAAAAAAAAAAAAAAAAAAAAAAAAAAAAAAAAAAAAAAAAAAAAAAAAAAAPZYQNebMrDfjQw8pXxPjj5u53o++RpR1wBYQ4V0Z/qk/yqcDoTwKmKz4dDKUNNwrzAFifpaLgPCL4C4tiaiv5xFks8=</c2pa:manifest></metadata><rect width="100%" height="100%" fill="#ffffff"/><text x="20" y="30" font-size="16" font-weight="bold" fill="#1f2937" text-anchor="start">SELECT sum(revenue) FROM events WHERE country = 'DE'</text><text x="20" y="65" font-size="14" font-weight="bold" fill="#b91c1c" text-anchor="start">Row store: reads every column of every row</text><rect x="20" y="80" width="32" height="20" rx="2" fill="#fca5a5" stroke="#b91c1c"/><rect x="54" y="80" width="32" height="20" rx="2" fill="#fca5a5" stroke="#b91c1c"/><rect x="88" y="80" width="32" height="20" rx="2" fill="#fca5a5" stroke="#b91c1c"/><rect x="122" y="80" width="32" height="20" rx="2" fill="#fca5a5" stroke="#b91c1c"/><rect x="156" y="80" width="32" height="20" rx="2" fill="#fca5a5" stroke="#b91c1c"/><rect x="190" y="80" width="32" height="20" rx="2" fill="#fca5a5" stroke="#b91c1c"/><rect x="224" y="80" width="32" height="20" rx="2" fill="#fca5a5" stroke="#b91c1c"/><rect x="258" y="80" width="32" height="20" rx="2" fill="#fca5a5" stroke="#b91c1c"/><rect x="292" y="80" width="32" height="20" rx="2" fill="#fca5a5" stroke="#b91c1c"/><rect x="326" y="80" width="32" height="20" rx="2" fill="#fca5a5" stroke="#b91c1c"/><rect x="20" y="102" width="32" height="20" rx="2" fill="#fca5a5" stroke="#b91c1c"/><rect x="54" y="102" width="32" height="20" rx="2" fill="#fca5a5" stroke="#b91c1c"/><rect x="88" y="102" width="32" height="20" rx="2" fill="#fca5a5" stroke="#b91c1c"/><rect x="122" y="102" width="32" height="20" rx="2" fill="#fca5a5" stroke="#b91c1c"/><rect x="156" y="102" width="32" height="20" rx="2" fill="#fca5a5" stroke="#b91c1c"/><rect x="190" y="102" width="32" height="20" rx="2" fill="#fca5a5" stroke="#b91c1c"/><rect x="224" y="102" width="32" height="20" rx="2" fill="#fca5a5" stroke="#b91c1c"/><rect x="258" y="102" width="32" height="20" rx="2" fill="#fca5a5" stroke="#b91c1c"/><rect x="292" y="102" width="32" height="20" rx="2" fill="#fca5a5" stroke="#b91c1c"/><rect x="326" y="102" width="32" height="20" rx="2" fill="#fca5a5" stroke="#b91c1c"/><rect x="20" y="124" width="32" height="20" rx="2" fill="#fca5a5" stroke="#b91c1c"/><rect x="54" y="124" width="32" height="20" rx="2" fill="#fca5a5" stroke="#b91c1c"/><rect x="88" y="124" width="32" height="20" rx="2" fill="#fca5a5" stroke="#b91c1c"/><rect x="122" y="124" width="32" height="20" rx="2" fill="#fca5a5" stroke="#b91c1c"/><rect x="156" y="124" width="32" height="20" rx="2" fill="#fca5a5" stroke="#b91c1c"/><rect x="190" y="124" width="32" height="20" rx="2" fill="#fca5a5" stroke="#b91c1c"/><rect x="224" y="124" width="32" height="20" rx="2" fill="#fca5a5" stroke="#b91c1c"/><rect x="258" y="124" width="32" height="20" rx="2" fill="#fca5a5" stroke="#b91c1c"/><rect x="292" y="124" width="32" height="20" rx="2" fill="#fca5a5" stroke="#b91c1c"/><rect x="326" y="124" width="32" height="20" rx="2" fill="#fca5a5" stroke="#b91c1c"/><rect x="20" y="146" width="32" height="20" rx="2" fill="#fca5a5" stroke="#b91c1c"/><rect x="54" y="146" width="32" height="20" rx="2" fill="#fca5a5" stroke="#b91c1c"/><rect x="88" y="146" width="32" height="20" rx="2" fill="#fca5a5" stroke="#b91c1c"/><rect x="122" y="146" width="32" height="20" rx="2" fill="#fca5a5" stroke="#b91c1c"/><rect x="156" y="146" width="32" height="20" rx="2" fill="#fca5a5" stroke="#b91c1c"/><rect x="190" y="146" width="32" height="20" rx="2" fill="#fca5a5" stroke="#b91c1c"/><rect x="224" y="146" width="32" height="20" rx="2" fill="#fca5a5" stroke="#b91c1c"/><rect x="258" y="146" width="32" height="20" rx="2" fill="#fca5a5" stroke="#b91c1c"/><rect x="292" y="146" width="32" height="20" rx="2" fill="#fca5a5" stroke="#b91c1c"/><rect x="326" y="146" width="32" height="20" rx="2" fill="#fca5a5" stroke="#b91c1c"/><rect x="20" y="168" width="32" height="20" rx="2" fill="#fca5a5" stroke="#b91c1c"/><rect x="54" y="168" width="32" height="20" rx="2" fill="#fca5a5" stroke="#b91c1c"/><rect x="88" y="168" width="32" height="20" rx="2" fill="#fca5a5" stroke="#b91c1c"/><rect x="122" y="168" width="32" height="20" rx="2" fill="#fca5a5" stroke="#b91c1c"/><rect x="156" y="168" width="32" height="20" rx="2" fill="#fca5a5" stroke="#b91c1c"/><rect x="190" y="168" width="32" height="20" rx="2" fill="#fca5a5" stroke="#b91c1c"/><rect x="224" y="168" width="32" height="20" rx="2" fill="#fca5a5" stroke="#b91c1c"/><rect x="258" y="168" width="32" height="20" rx="2" fill="#fca5a5" stroke="#b91c1c"/><rect x="292" y="168" width="32" height="20" rx="2" fill="#fca5a5" stroke="#b91c1c"/><rect x="326" y="168" width="32" height="20" rx="2" fill="#fca5a5" stroke="#b91c1c"/><rect x="20" y="190" width="32" height="20" rx="2" fill="#fca5a5" stroke="#b91c1c"/><rect x="54" y="190" width="32" height="20" rx="2" fill="#fca5a5" stroke="#b91c1c"/><rect x="88" y="190" width="32" height="20" rx="2" fill="#fca5a5" stroke="#b91c1c"/><rect x="122" y="190" width="32" height="20" rx="2" fill="#fca5a5" stroke="#b91c1c"/><rect x="156" y="190" width="32" height="20" rx="2" fill="#fca5a5" stroke="#b91c1c"/><rect x="190" y="190" width="32" height="20" rx="2" fill="#fca5a5" stroke="#b91c1c"/><rect x="224" y="190" width="32" height="20" rx="2" fill="#fca5a5" stroke="#b91c1c"/><rect x="258" y="190" width="32" height="20" rx="2" fill="#fca5a5" stroke="#b91c1c"/><rect x="292" y="190" width="32" height="20" rx="2" fill="#fca5a5" stroke="#b91c1c"/><rect x="326" y="190" width="32" height="20" rx="2" fill="#fca5a5" stroke="#b91c1c"/><text x="460" y="65" font-size="14" font-weight="bold" fill="#15803d" text-anchor="start">Column store: reads only 2 of 10 columns</text><rect x="460" y="80" width="32" height="20" rx="2" fill="#f3f4f6" stroke="#d1d5db"/><rect x="460" y="102" width="32" height="20" rx="2" fill="#f3f4f6" stroke="#d1d5db"/><rect x="460" y="124" width="32" height="20" rx="2" fill="#f3f4f6" stroke="#d1d5db"/><rect x="460" y="146" width="32" height="20" rx="2" fill="#f3f4f6" stroke="#d1d5db"/><rect x="460" y="168" width="32" height="20" rx="2" fill="#f3f4f6" stroke="#d1d5db"/><rect x="460" y="190" width="32" height="20" rx="2" fill="#f3f4f6" stroke="#d1d5db"/><text x="476" y="230" font-size="10" fill="#9ca3af" text-anchor="end" transform="rotate(-45 476 230)">time</text><rect x="494" y="80" width="32" height="20" rx="2" fill="#f3f4f6" stroke="#d1d5db"/><rect x="494" y="102" width="32" height="20" rx="2" fill="#f3f4f6" stroke="#d1d5db"/><rect x="494" y="124" width="32" height="20" rx="2" fill="#f3f4f6" stroke="#d1d5db"/><rect x="494" y="146" width="32" height="20" rx="2" fill="#f3f4f6" stroke="#d1d5db"/><rect x="494" y="168" width="32" height="20" rx="2" fill="#f3f4f6" stroke="#d1d5db"/><rect x="494" y="190" width="32" height="20" rx="2" fill="#f3f4f6" stroke="#d1d5db"/><text x="510" y="230" font-size="10" fill="#9ca3af" text-anchor="end" transform="rotate(-45 510 230)">tenant</text><rect x="528" y="80" width="32" height="20" rx="2" fill="#f3f4f6" stroke="#d1d5db"/><rect x="528" y="102" width="32" height="20" rx="2" fill="#f3f4f6" stroke="#d1d5db"/><rect x="528" y="124" width="32" height="20" rx="2" fill="#f3f4f6" stroke="#d1d5db"/><rect x="528" y="146" width="32" height="20" rx="2" fill="#f3f4f6" stroke="#d1d5db"/><rect x="528" y="168" width="32" height="20" rx="2" fill="#f3f4f6" stroke="#d1d5db"/><rect x="528" y="190" width="32" height="20" rx="2" fill="#f3f4f6" stroke="#d1d5db"/><text x="544" y="230" font-size="10" fill="#9ca3af" text-anchor="end" transform="rotate(-45 544 230)">user</text><rect x="562" y="80" width="32" height="20" rx="2" fill="#f3f4f6" stroke="#d1d5db"/><rect x="562" y="102" width="32" height="20" rx="2" fill="#f3f4f6" stroke="#d1d5db"/><rect x="562" y="124" width="32" height="20" rx="2" fill="#f3f4f6" stroke="#d1d5db"/><rect x="562" y="146" width="32" height="20" rx="2" fill="#f3f4f6" stroke="#d1d5db"/><rect x="562" y="168" width="32" height="20" rx="2" fill="#f3f4f6" stroke="#d1d5db"/><rect x="562" y="190" width="32" height="20" rx="2" fill="#f3f4f6" stroke="#d1d5db"/><text x="578" y="230" font-size="10" fill="#9ca3af" text-anchor="end" transform="rotate(-45 578 230)">session</text><rect x="596" y="80" width="32" height="20" rx="2" fill="#f3f4f6" stroke="#d1d5db"/><rect x="596" y="102" width="32" height="20" rx="2" fill="#f3f4f6" stroke="#d1d5db"/><rect x="596" y="124" width="32" height="20" rx="2" fill="#f3f4f6" stroke="#d1d5db"/><rect x="596" y="146" width="32" height="20" rx="2" fill="#f3f4f6" stroke="#d1d5db"/><rect x="596" y="168" width="32" height="20" rx="2" fill="#f3f4f6" stroke="#d1d5db"/><rect x="596" y="190" width="32" height="20" rx="2" fill="#f3f4f6" stroke="#d1d5db"/><text x="612" y="230" font-size="10" fill="#9ca3af" text-anchor="end" transform="rotate(-45 612 230)">type</text><rect x="630" y="80" width="32" height="20" rx="2" fill="#86efac" stroke="#15803d"/><rect x="630" y="102" width="32" height="20" rx="2" fill="#86efac" stroke="#15803d"/><rect x="630" y="124" width="32" height="20" rx="2" fill="#86efac" stroke="#15803d"/><rect x="630" y="146" width="32" height="20" rx="2" fill="#86efac" stroke="#15803d"/><rect x="630" y="168" width="32" height="20" rx="2" fill="#86efac" stroke="#15803d"/><rect x="630" y="190" width="32" height="20" rx="2" fill="#86efac" stroke="#15803d"/><text x="646" y="230" font-size="10" fill="#15803d" text-anchor="end" transform="rotate(-45 646 230)">country</text><rect x="664" y="80" width="32" height="20" rx="2" fill="#f3f4f6" stroke="#d1d5db"/><rect x="664" y="102" width="32" height="20" rx="2" fill="#f3f4f6" stroke="#d1d5db"/><rect x="664" y="124" width="32" height="20" rx="2" fill="#f3f4f6" stroke="#d1d5db"/><rect x="664" y="146" width="32" height="20" rx="2" fill="#f3f4f6" stroke="#d1d5db"/><rect x="664" y="168" width="32" height="20" rx="2" fill="#f3f4f6" stroke="#d1d5db"/><rect x="664" y="190" width="32" height="20" rx="2" fill="#f3f4f6" stroke="#d1d5db"/><text x="680" y="230" font-size="10" fill="#9ca3af" text-anchor="end" transform="rotate(-45 680 230)">device</text><rect x="698" y="80" width="32" height="20" rx="2" fill="#f3f4f6" stroke="#d1d5db"/><rect x="698" y="102" width="32" height="20" rx="2" fill="#f3f4f6" stroke="#d1d5db"/><rect x="698" y="124" width="32" height="20" rx="2" fill="#f3f4f6" stroke="#d1d5db"/><rect x="698" y="146" width="32" height="20" rx="2" fill="#f3f4f6" stroke="#d1d5db"/><rect x="698" y="168" width="32" height="20" rx="2" fill="#f3f4f6" stroke="#d1d5db"/><rect x="698" y="190" width="32" height="20" rx="2" fill="#f3f4f6" stroke="#d1d5db"/><text x="714" y="230" font-size="10" fill="#9ca3af" text-anchor="end" transform="rotate(-45 714 230)">url</text><rect x="732" y="80" width="32" height="20" rx="2" fill="#f3f4f6" stroke="#d1d5db"/><rect x="732" y="102" width="32" height="20" rx="2" fill="#f3f4f6" stroke="#d1d5db"/><rect x="732" y="124" width="32" height="20" rx="2" fill="#f3f4f6" stroke="#d1d5db"/><rect x="732" y="146" width="32" height="20" rx="2" fill="#f3f4f6" stroke="#d1d5db"/><rect x="732" y="168" width="32" height="20" rx="2" fill="#f3f4f6" stroke="#d1d5db"/><rect x="732" y="190" width="32" height="20" rx="2" fill="#f3f4f6" stroke="#d1d5db"/><text x="748" y="230" font-size="10" fill="#9ca3af" text-anchor="end" transform="rotate(-45 748 230)">dur</text><rect x="766" y="80" width="32" height="20" rx="2" fill="#86efac" stroke="#15803d"/><rect x="766" y="102" width="32" height="20" rx="2" fill="#86efac" stroke="#15803d"/><rect x="766" y="124" width="32" height="20" rx="2" fill="#86efac" stroke="#15803d"/><rect x="766" y="146" width="32" height="20" rx="2" fill="#86efac" stroke="#15803d"/><rect x="766" y="168" width="32" height="20" rx="2" fill="#86efac" stroke="#15803d"/><rect x="766" y="190" width="32" height="20" rx="2" fill="#86efac" stroke="#15803d"/><text x="782" y="230" font-size="10" fill="#15803d" text-anchor="end" transform="rotate(-45 782 230)">revenue</text><text x="20" y="250" font-size="13" font-weight="bold" fill="#b91c1c" text-anchor="start">Data read: 100%</text><text x="460" y="275" font-size="13" font-weight="bold" fill="#15803d" text-anchor="start">Data read: about 20% (less after compression)</text></svg>